<?xml version="1.0" standalone="no"?>
<!DOCTYPE svg PUBLIC "-//W3C//DTD SVG 20010904//EN"
 "http://www.w3.org/TR/2001/REC-SVG-20010904/DTD/svg10.dtd">
<svg version="1.0" xmlns="http://www.w3.org/2000/svg"
 width="500.000000pt" height="500.000000pt" viewBox="0 0 500.000000 500.000000"
 preserveAspectRatio="xMidYMid meet">

<g transform="translate(0.000000,500.000000) scale(0.100000,-0.100000)"
fill="#000000" stroke="none">
<path d="M1254 2808 c-28 -13 -48 -56 -35 -72 7 -9 2 -17 -20 -30 -31 -18 -31
-18 -9 -33 16 -11 20 -23 18 -49 -2 -29 -10 -39 -47 -61 -24 -14 -41 -21 -38
-16 4 6 -2 18 -12 27 -11 10 -25 31 -32 48 -12 28 -13 29 -26 12 -7 -10 -13
-32 -14 -48 0 -27 -2 -28 -9 -11 -6 13 -9 15 -9 5 -1 -21 46 -63 61 -55 7 4 5
0 -5 -9 -18 -14 -17 -15 13 -31 18 -9 43 -15 56 -12 13 2 22 1 21 -2 -1 -3 8
-16 21 -28 33 -34 30 -77 -8 -93 -17 -7 -44 -10 -61 -6 -26 5 -30 3 -25 -10 3
-9 6 -17 6 -20 0 -7 59 -34 75 -34 8 0 33 13 55 29 24 17 48 27 59 24 10 -3
22 0 25 6 11 18 36 13 85 -16 40 -23 43 -27 26 -35 -11 -5 -31 -27 -45 -49
-13 -21 -31 -39 -40 -39 -8 0 -26 -7 -39 -16 -18 -13 -20 -18 -10 -25 41 -26
134 5 160 53 11 21 11 22 -5 9 -13 -11 -11 -4 6 22 17 26 28 34 42 30 17 -5
18 -1 11 33 -8 43 -15 50 -103 99 -60 33 -64 34 -92 20 -39 -20 -40 -20 -40
20 0 31 -5 38 -31 49 l-31 13 36 21 c29 17 36 27 36 53 0 26 3 30 18 23 9 -4
28 -8 42 -8 14 0 33 4 43 8 14 7 17 3 17 -23 0 -25 7 -36 30 -49 37 -21 37
-28 0 -47 -36 -18 -39 -46 -8 -75 28 -26 46 -26 50 1 2 14 22 32 58 52 30 17
49 24 42 15 -10 -12 -10 -18 2 -27 8 -7 20 -28 27 -48 10 -31 13 -33 26 -20
21 21 21 83 0 104 -16 16 -15 19 14 49 38 40 48 97 25 142 -17 32 -39 41 -51
21 -5 -7 -15 -4 -29 8 -42 38 -71 51 -89 42 -13 -8 -18 -4 -23 16 -3 14 -11
25 -18 25 -23 -1 -50 -31 -51 -58 0 -20 -8 -31 -35 -46 -34 -18 -36 -18 -66 0
-27 17 -30 22 -23 49 5 17 18 40 29 52 11 12 20 25 20 28 0 9 -54 4 -76 -7z
m337 -138 c26 -15 16 -56 -22 -93 l-30 -27 -29 22 c-24 17 -30 29 -30 59 0 21
6 40 13 42 22 9 78 7 98 -3z"/>
<path d="M1053 2724 l-28 -25 33 22 c17 13 32 24 32 26 0 8 -11 1 -37 -23z"/>
<path d="M1858 2517 c-43 -111 -81 -210 -84 -219 -5 -15 0 -18 34 -18 45 0 44
-1 101 173 13 37 26 67 29 67 4 0 18 -30 31 -67 65 -185 58 -173 102 -173 21
0 39 3 39 6 0 10 -161 419 -168 426 -4 4 -42 -84 -84 -195z"/>
<path d="M2188 2538 l-3 -183 -28 -3 c-25 -3 -28 -7 -25 -35 l3 -32 93 -3 92
-3 0 36 c0 31 -3 35 -25 35 l-25 0 0 185 0 185 -40 0 -40 0 -2 -182z"/>
<path d="M2533 2700 c-59 -35 -80 -113 -47 -170 19 -32 63 -60 94 -60 11 0 34
-7 50 -15 40 -21 42 -70 5 -87 -20 -9 -25 -18 -25 -50 0 -37 1 -38 28 -32 44
11 62 23 82 57 53 86 -12 197 -114 197 -46 0 -76 61 -43 88 30 24 56 23 82 -2
18 -18 37 -26 62 -26 33 0 35 1 28 28 -20 79 -127 118 -202 72z"/>
<path d="M3010 2565 c0 -152 -1 -156 -25 -180 -16 -17 -35 -25 -60 -25 -25 0
-44 8 -60 25 -24 23 -25 30 -25 140 l0 115 -40 0 -40 0 0 -121 c0 -90 4 -130
16 -155 51 -107 247 -107 298 0 13 27 16 68 16 195 l0 161 -40 0 -40 0 0 -155z"/>
<path d="M3110 2500 l0 -220 40 0 39 0 3 126 3 126 60 -116 60 -116 37 0 38 0
57 113 58 112 3 -67 3 -68 39 0 40 0 0 165 0 165 -43 0 -42 0 -74 -160 c-41
-88 -76 -160 -77 -160 -2 0 -40 72 -84 160 l-80 160 -40 0 -40 0 0 -220z"/>
<path d="M3612 2683 l3 -38 68 -3 c37 -2 67 -6 67 -10 0 -4 -15 -46 -34 -95
l-35 -87 44 0 43 0 51 128 c28 70 51 130 51 135 0 4 -59 7 -131 7 l-130 0 3
-37z"/>
<path d="M3892 2503 l3 -218 103 -3 102 -3 0 41 0 40 -60 0 -60 0 0 50 0 49
88 3 87 3 3 38 3 37 -90 0 -91 0 0 55 0 55 60 0 60 0 0 35 0 35 -105 0 -105 0
2 -217z"/>
<path d="M4170 2686 l0 -34 91 -4 c81 -3 93 -6 110 -27 24 -29 24 -36 -1 -61
-17 -17 -33 -20 -110 -20 l-90 0 0 -130 0 -130 40 0 40 0 0 90 0 90 28 0 c24
0 31 -9 69 -90 l42 -90 40 0 c23 0 41 2 41 5 0 2 -19 45 -41 94 l-41 90 35 31
c64 56 57 156 -15 200 -27 17 -50 20 -135 20 l-103 0 0 -34z"/>
<path d="M3632 2327 c-7 -18 -12 -36 -12 -40 0 -4 59 -7 130 -7 l130 0 0 40 0
40 -118 0 -118 0 -12 -33z"/>
</g>
</svg>
